<svg xmlns="http://www.w3.org/2000/svg"  viewBox="0 0 100 100" width="100px" height="100px" baseProfile="basic"><path fill="#c7ede6" d="M87.215,56.71C88.35,54.555,89,52.105,89,49.5c0-6.621-4.159-12.257-10.001-14.478	C78.999,35.015,79,35.008,79,35c0-11.598-9.402-21-21-21c-9.784,0-17.981,6.701-20.313,15.757C36.211,29.272,34.638,29,33,29	c-7.692,0-14.023,5.793-14.89,13.252C12.906,43.353,9,47.969,9,53.5C9,59.851,14.149,65,20.5,65c0.177,0,0.352-0.012,0.526-0.022	C21.022,65.153,21,65.324,21,65.5C21,76.822,30.178,86,41.5,86c6.437,0,12.175-2.972,15.934-7.614C59.612,80.611,62.64,82,66,82	c4.65,0,8.674-2.65,10.666-6.518C77.718,75.817,78.837,76,80,76c6.075,0,11-4.925,11-11C91,61.689,89.53,58.727,87.215,56.71z"/><path fill="#fff" d="M67.5,20h-10c-0.276,0-0.5-0.224-0.5-0.5s0.224-0.5,0.5-0.5h10c0.276,0,0.5,0.224,0.5,0.5	S67.777,20,67.5,20z M70.5,20h-1c-0.276,0-0.5-0.224-0.5-0.5s0.224-0.5,0.5-0.5h1c0.276,0,0.5,0.224,0.5,0.5S70.777,20,70.5,20z M75.491,22H66.5c-0.276,0-0.5-0.224-0.5-0.5s0.224-0.5,0.5-0.5h8.991c0.276,0,0.5,0.224,0.5,0.5S75.767,22,75.491,22z M64.5,22h-1	c-0.276,0-0.5-0.224-0.5-0.5s0.224-0.5,0.5-0.5h1c0.276,0,0.5,0.224,0.5,0.5S64.777,22,64.5,22z M61.5,22h-2	c-0.276,0-0.5-0.224-0.5-0.5s0.224-0.5,0.5-0.5h2c0.276,0,0.5,0.224,0.5,0.5S61.777,22,61.5,22z M67.5,24h-2	c-0.276,0-0.5-0.224-0.5-0.5s0.224-0.5,0.5-0.5h2c0.276,0,0.5,0.224,0.5,0.5S67.776,24,67.5,24z M70.5,15c-0.177,0-0.823,0-1,0	c-0.276,0-0.5,0.224-0.5,0.5s0.224,0.5,0.5,0.5c0.177,0,0.823,0,1,0c0.276,0,0.5-0.224,0.5-0.5S70.776,15,70.5,15z M70.5,17	c-0.177,0-4.823,0-5,0c-0.276,0-0.5,0.224-0.5,0.5s0.224,0.5,0.5,0.5c0.177,0,4.823,0,5,0c0.276,0,0.5-0.224,0.5-0.5	S70.776,17,70.5,17z M75.5,19c-0.177,0-2.823,0-3,0c-0.276,0-0.5,0.224-0.5,0.5s0.224,0.5,0.5,0.5c0.177,0,2.823,0,3,0	c0.276,0,0.5-0.224,0.5-0.5S75.776,19,75.5,19z"/><path fill="#fff" d="M14.216,55.024H4.247c-0.274,0-0.497-0.223-0.497-0.497c0-0.274,0.223-0.497,0.497-0.497h9.969	c0.274,0,0.497,0.223,0.497,0.497C14.713,54.802,14.491,55.024,14.216,55.024z M17.577,54.527c0-0.274-0.223-0.497-0.497-0.497	h-1.437c-0.274,0-0.497,0.223-0.497,0.497c0,0.274,0.223,0.497,0.497,0.497h1.437C17.355,55.024,17.577,54.802,17.577,54.527z M21.607,54.527c0-0.274-0.223-0.497-0.497-0.497h-2.531c-0.274,0-0.497,0.223-0.497,0.497c0,0.274,0.223,0.497,0.497,0.497h2.531	C21.385,55.024,21.607,54.802,21.607,54.527z M21.607,56.515c0-0.274-0.223-0.497-0.497-0.497h-9.558	c-0.274,0-0.497,0.223-0.497,0.497c0,0.274,0.223,0.497,0.497,0.497h9.558C21.385,57.012,21.607,56.79,21.607,56.515z M10.328,56.515c0-0.274-0.223-0.497-0.497-0.497H9.254c-0.274,0-0.497,0.223-0.497,0.497c0,0.274,0.223,0.497,0.497,0.497h0.576	C10.105,57.012,10.328,56.79,10.328,56.515z M7.966,56.515c0-0.274-0.223-0.497-0.497-0.497H6.021c-0.274,0-0.497,0.223-0.497,0.497	c0,0.274,0.223,0.497,0.497,0.497h1.448C7.744,57.012,7.966,56.79,7.966,56.515z M17.046,52.539c0-0.274-0.223-0.497-0.497-0.497	h-4.996c-0.274,0-0.497,0.223-0.497,0.497c0,0.274,0.223,0.497,0.497,0.497h4.996C16.824,53.036,17.046,52.814,17.046,52.539z M17.046,50.552c0-0.274-0.223-0.497-0.497-0.497h-1.249c-0.274,0-0.497,0.223-0.497,0.497s0.223,0.497,0.497,0.497h1.249	C16.824,51.049,17.046,50.826,17.046,50.552z M13.797,58.503c0-0.274-0.223-0.497-0.497-0.497h-1.747	c-0.274,0-0.497,0.223-0.497,0.497c0,0.274,0.223,0.497,0.497,0.497H13.3C13.575,59,13.797,58.777,13.797,58.503z"/><path fill="#fdfcef" d="M84.498,49.5c0,0,1.567,0,3.5,0s3.5-1.567,3.5-3.5c0-1.781-1.335-3.234-3.055-3.455 c0.028-0.179,0.055-0.358,0.055-0.545c0-1.933-1.567-3.5-3.5-3.5c-1.032,0-1.95,0.455-2.59,1.165 c-0.384-1.808-1.987-3.165-3.91-3.165c-2.209,0-4,1.791-4,4c0,0.191,0.03,0.374,0.056,0.558c-0.428-0.344-0.965-0.558-1.556-0.558 c-1.228,0-2.245,0.887-2.455,2.055c-0.179-0.028-0.358-0.055-0.545-0.055c-1.933,0-3.5,1.567-3.5,3.5s1.567,3.5,3.5,3.5 s7.5,0,7.5,0V50h7V49.5z"/><path fill="#472b29" d="M86.248,45c-0.138,0-0.25-0.112-0.25-0.25c0-1.223,0.995-2.218,2.218-2.218 c0.034,0.009,0.737-0.001,1.244,0.136c0.133,0.036,0.212,0.173,0.176,0.306c-0.036,0.134-0.173,0.213-0.306,0.176 c-0.444-0.12-1.1-0.12-1.113-0.118c-0.948,0-1.719,0.771-1.719,1.718C86.498,44.888,86.387,45,86.248,45z"/><circle cx="79.498" cy="49.5" r=".5" fill="#472b29"/><path fill="#472b29" d="M87.998,50h-3.5c-0.276,0-0.5-0.224-0.5-0.5s0.224-0.5,0.5-0.5h3.5c1.654,0,3-1.346,3-3 c0-1.496-1.125-2.768-2.618-2.959c-0.134-0.018-0.255-0.088-0.336-0.196s-0.115-0.244-0.094-0.377 c0.024-0.153,0.049-0.308,0.049-0.468c0-1.654-1.346-3-3-3c-0.85,0-1.638,0.355-2.219,1c-0.125,0.139-0.321,0.198-0.5,0.148 c-0.182-0.049-0.321-0.195-0.36-0.379C81.579,38.165,80.141,37,78.5,37c-1.93,0-3.5,1.57-3.5,3.5c0,0.143,0.021,0.28,0.041,0.418 c0.029,0.203-0.063,0.438-0.242,0.54c-0.179,0.102-0.396,0.118-0.556-0.01C73.878,41.155,73.449,41,73,41 c-0.966,0-1.792,0.691-1.963,1.644c-0.048,0.267-0.296,0.446-0.569,0.405C70.315,43.025,70.16,43,70,43c-1.654,0-3,1.346-3,3 s1.346,3,3,3h7.5c0.276,0,0.5,0.224,0.5,0.5S77.776,50,77.5,50H70c-2.206,0-4-1.794-4-4s1.794-4,4-4 c0.059,0,0.116,0.002,0.174,0.006C70.588,40.82,71.711,40,73,40c0.349,0,0.689,0.061,1.011,0.18C74.176,37.847,76.126,36,78.5,36 c1.831,0,3.466,1.127,4.153,2.774C83.333,38.275,84.155,38,85,38c2.206,0,4,1.794,4,4c0,0.048-0.001,0.095-0.004,0.142 C90.739,42.59,92,44.169,92,46C91.998,48.206,90.204,50,87.998,50z"/><path fill="#472b29" d="M82.498,49c-0.159,0-0.841,0-1,0c-0.276,0-0.5,0.224-0.5,0.5s0.224,0.5,0.5,0.5c0.159,0,0.841,0,1,0 c0.276,0,0.5-0.224,0.5-0.5S82.774,49,82.498,49z"/><path fill="#fdfcef" d="M66.167,71.25H37.833c-3.912,0-7.083-3.171-7.083-7.083V35.833c0-3.912,3.171-7.083,7.083-7.083 h28.333c3.912,0,7.083,3.171,7.083,7.083v28.333C73.25,68.079,70.079,71.25,66.167,71.25z"/><path fill="#472b29" d="M66.167,71.95H37.833c-4.292,0-7.783-3.491-7.783-7.783V35.833c0-4.292,3.491-7.783,7.783-7.783 h28.334c4.292,0,7.783,3.491,7.783,7.783v28.334C73.95,68.459,70.459,71.95,66.167,71.95z M37.833,29.45 c-3.52,0-6.383,2.863-6.383,6.383v28.334c0,3.52,2.863,6.383,6.383,6.383h28.334c3.52,0,6.383-2.863,6.383-6.383V35.833 c0-3.52-2.863-6.383-6.383-6.383H37.833z"/><path fill="#472b29" d="M69.5,42c-0.276,0-0.5-0.224-0.5-0.5v-4c0-0.276,0.224-0.5,0.5-0.5s0.5,0.224,0.5,0.5v4	C70,41.776,69.776,42,69.5,42z"/><path fill="#472b29" d="M34.5,51.875c-0.276,0-0.5-0.224-0.5-0.5V37.178C34,34.322,36.322,32,39.178,32h24.131	c0.276,0,0.5,0.224,0.5,0.5s-0.224,0.5-0.5,0.5H39.178C36.874,33,35,34.874,35,37.178v14.197C35,51.651,34.776,51.875,34.5,51.875z"/><path fill="#472b29" d="M34.5,57c-0.276,0-0.5-0.224-0.5-0.5v-2.875c0-0.276,0.224-0.5,0.5-0.5s0.5,0.224,0.5,0.5V56.5	C35,56.776,34.776,57,34.5,57z"/><path fill="#472b29" d="M64.822,68H39.178C36.322,68,34,65.678,34,62.822v-3.197c0-0.276,0.224-0.5,0.5-0.5	s0.5,0.224,0.5,0.5v3.197C35,65.126,36.874,67,39.178,67h25.645C67.126,67,69,65.126,69,62.822V47.625c0-0.276,0.224-0.5,0.5-0.5	s0.5,0.224,0.5,0.5v15.197C70,65.678,67.678,68,64.822,68z"/><path fill="#472b29" d="M69.5,46c-0.276,0-0.5-0.224-0.5-0.5v-1.78c0-0.276,0.224-0.5,0.5-0.5s0.5,0.224,0.5,0.5v1.78	C70,45.776,69.776,46,69.5,46z"/><g><path fill="#495398" d="M65.214,48.017h-0.314c-2.57,0-4.654-2.084-4.654-4.654v-1.78c-2.764-1.687-6.221-2.2-9.538-1.104 l-5.917,1.955l-0.278-0.87c-0.71-2.222-3.086-3.447-5.307-2.738l-0.955,0.305l5.196,15.777c1.98,5.99,8.44,9.241,14.43,7.261h0 C63.774,60.221,67.006,53.928,65.214,48.017z M59.147,53.802c-0.661,1.315-1.796,2.294-3.194,2.755 c-0.565,0.187-1.148,0.281-1.732,0.281c-2.38,0-4.483-1.521-5.231-3.785l-1.73-5.234l5.234-1.729 c0.564-0.187,1.147-0.281,1.731-0.281c2.381,0,4.484,1.521,5.232,3.785C59.919,50.993,59.809,52.487,59.147,53.802z"/><path fill="#472b29" d="M54.28,63.003c-1.797,0-3.583-0.42-5.235-1.252c-2.785-1.401-4.857-3.804-5.836-6.765L38.013,39.21 c-0.021-0.063-0.016-0.132,0.015-0.191s0.083-0.104,0.146-0.125l0.955-0.306c2.344-0.748,4.871,0.551,5.622,2.9l0.201,0.629 l5.678-1.876c3.252-1.076,6.808-0.666,9.745,1.128c0.075,0.046,0.12,0.127,0.12,0.214v1.779c0,2.429,1.976,4.404,4.404,4.404h0.314 c0.11,0,0.207,0.072,0.239,0.178c1.852,6.108-1.442,12.462-7.499,14.463C56.751,62.805,55.513,63.003,54.28,63.003z M38.566,39.293 l5.117,15.537c0.937,2.833,2.92,5.133,5.586,6.475c2.666,1.341,5.694,1.565,8.528,0.628c5.738-1.896,8.885-7.874,7.229-13.666 h-0.128c-2.704,0-4.904-2.2-4.904-4.904v-1.638c-2.787-1.654-6.133-2.023-9.209-1.009l-5.917,1.955 c-0.063,0.022-0.133,0.017-0.191-0.015c-0.06-0.03-0.104-0.083-0.125-0.146l-0.278-0.869c-0.667-2.087-2.906-3.243-4.993-2.576 L38.566,39.293z M54.221,57.089c-2.488,0-4.686-1.59-5.468-3.957l-1.73-5.233c-0.021-0.063-0.016-0.131,0.014-0.19 c0.03-0.06,0.082-0.104,0.146-0.125l5.234-1.729c0.59-0.195,1.198-0.294,1.81-0.294c2.489,0,4.687,1.59,5.469,3.957 c0.482,1.461,0.367,3.022-0.324,4.397s-1.877,2.397-3.339,2.881C55.44,56.99,54.831,57.089,54.221,57.089z M47.575,47.979 l1.652,4.996c0.714,2.161,2.721,3.613,4.993,3.613c0.558,0,1.113-0.091,1.654-0.269c1.335-0.441,2.417-1.376,3.048-2.631l0,0 c0.632-1.256,0.737-2.682,0.297-4.017c-0.714-2.161-2.722-3.613-4.994-3.613c-0.558,0-1.113,0.091-1.653,0.269L47.575,47.979z"/></g><g><polygon fill="#472b29" points="42.466,45.876 41.808,43.833 42.046,43.757 42.704,45.8"/><path fill="#472b29" d="M47.342,57.934c-0.979-1.031-1.703-2.243-2.152-3.602l-2.355-7.313l0.238-0.076l2.355,7.312 c0.437,1.322,1.142,2.502,2.096,3.507L47.342,57.934z"/><path fill="#472b29" d="M50.703,60.221c-0.676-0.272-1.322-0.624-1.922-1.045l0.145-0.205 c0.583,0.41,1.213,0.753,1.871,1.018L50.703,60.221z"/><path fill="#472b29" d="M54.291,60.914c-0.791,0-1.58-0.098-2.346-0.289l0.061-0.242c1.707,0.427,3.52,0.367,5.216-0.193 c1.177-0.389,2.244-0.988,3.174-1.782l0.162,0.189c-0.954,0.815-2.05,1.432-3.258,1.831C56.32,60.75,55.308,60.914,54.291,60.914z"/></g><g><path fill="#fdfcef" d="M35.566,76.531v0.5h3v-0.5c0,0,4.242,0,5.5,0c2.485,0,4.5-2.015,4.5-4.5 c0-2.333-1.782-4.229-4.055-4.455c0.022-0.181,0.055-0.358,0.055-0.545c0-2.485-2.015-4.5-4.5-4.5 c-1.438,0-2.703,0.686-3.527,1.736c-0.14-2.636-2.302-4.736-4.973-4.736c-2.761,0-5,2.239-5,5c0,0.446,0.077,0.87,0.187,1.282 c-0.642-0.777-1.6-1.282-2.687-1.282c-1.781,0-3.234,1.335-3.455,3.055c-0.181-0.022-0.358-0.055-0.545-0.055 c-2.485,0-4.5,2.015-4.5,4.5s2.015,4.5,4.5,4.5s9.5,0,9.5,0H35.566z"/><path fill="#472b29" d="M31.566,59.031c-3.033,0-5.5,2.467-5.5,5.5c0,0.016,0,0.031,0,0.047 c-0.602-0.354-1.29-0.547-2-0.547c-1.831,0-3.411,1.261-3.858,3.005c-0.047-0.003-0.094-0.005-0.142-0.005c-2.757,0-5,2.243-5,5 s2.243,5,5,5h15.5c0.276,0,0.5-0.224,0.5-0.5s-0.224-0.5-0.5-0.5h-15.5c-2.206,0-4-1.794-4-4s1.794-4,4-4 c0.117,0,0.23,0.017,0.343,0.032l0.141,0.019c0.021,0.003,0.041,0.004,0.062,0.004c0.246,0,0.462-0.185,0.495-0.437 c0.191-1.493,1.463-2.618,2.959-2.618c0.885,0,1.723,0.401,2.301,1.1c0.098,0.118,0.241,0.182,0.386,0.182 c0.078,0,0.156-0.018,0.228-0.056c0.209-0.107,0.314-0.346,0.254-0.573c-0.116-0.436-0.17-0.802-0.17-1.153 c0-2.481,2.019-4.5,4.5-4.5c2.381,0,4.347,1.872,4.474,4.263c0.011,0.208,0.15,0.387,0.349,0.45 c0.05,0.016,0.101,0.024,0.152,0.024c0.15,0,0.296-0.069,0.392-0.192c0.771-0.981,1.913-1.544,3.133-1.544c2.206,0,4,1.794,4,4 c0,0.117-0.017,0.23-0.032,0.343l-0.019,0.141c-0.016,0.134,0.022,0.268,0.106,0.373s0.207,0.172,0.34,0.185 c2.055,0.205,3.604,1.906,3.604,3.958c0,2.206-1.794,4-4,4h-5.5c-0.276,0-0.5,0.224-0.5,0.5s0.224,0.5,0.5,0.5h5.5 c2.757,0,5-2.243,5-5c0-2.397-1.689-4.413-4.003-4.877c0.002-0.041,0.003-0.082,0.003-0.123c0-2.757-2.243-5-5-5 c-1.176,0-2.293,0.416-3.183,1.164C36.285,60.791,34.121,59.031,31.566,59.031L31.566,59.031z"/><path fill="#472b29" d="M30.066,66.031c-1.403,0-2.609,0.999-2.913,2.341c-0.367-0.222-0.786-0.341-1.212-0.341 c-1.202,0-2.198,0.897-2.353,2.068c-0.203-0.045-0.396-0.068-0.585-0.068c-1.529,0-2.811,1.2-2.918,2.732 c-0.009,0.138,0.094,0.257,0.232,0.267c0.006,0,0.012,0,0.018,0c0.13,0,0.24-0.101,0.249-0.232 c0.089-1.271,1.151-2.268,2.419-2.268c0.229,0,0.47,0.042,0.738,0.127c0.022,0.007,0.045,0.01,0.067,0.01 c0.055,0,0.11-0.02,0.156-0.054c0.064-0.047,0.102-0.129,0.102-0.209c0-1.034,0.841-1.875,1.875-1.875 c0.447,0,0.885,0.168,1.231,0.473c0.047,0.041,0.106,0.063,0.165,0.063c0.032,0,0.063-0.006,0.093-0.019 c0.088-0.035,0.148-0.117,0.155-0.212c0.102-1.292,1.191-2.305,2.479-2.305c0.208,0,0.425,0.034,0.682,0.107 c0.023,0.007,0.047,0.01,0.07,0.01c0.109,0,0.207-0.073,0.239-0.182c0.038-0.133-0.039-0.271-0.172-0.309 C30.583,66.071,30.322,66.031,30.066,66.031L30.066,66.031z"/><path fill="#472b29" d="M43.949,67.531c-1.326,0-2.508,0.897-2.874,2.182c-0.038,0.133,0.039,0.271,0.172,0.309 c0.023,0.007,0.046,0.01,0.068,0.01c0.109,0,0.209-0.072,0.24-0.182c0.305-1.071,1.289-1.818,2.393-1.818 c0.117,0,0.23,0.014,0.342,0.029c0.012,0.002,0.023,0.003,0.035,0.003c0.121,0,0.229-0.092,0.246-0.217 c0.019-0.137-0.077-0.263-0.214-0.281C44.224,67.547,44.089,67.531,43.949,67.531L43.949,67.531z"/></g></svg>